<?xml version="1.0" encoding="UTF-8"?>
<svg version="1.1" xmlns="http://www.w3.org/2000/svg" width="157" height="171">
<path d="M0 0 C2.87758928 1.29002926 3.7314777 3.53911347 4.97753906 6.31689453 C10.94649951 22.33237688 10.83451831 39.44649053 3.73925781 55.05126953 C-2.11955555 65.86754035 -10.64681617 72.56167074 -22.05371094 77.03173828 C-27.97834072 78.58862866 -34.24652587 78.23262523 -40.32324219 78.23876953 C-41.58265625 78.26326172 -42.84207031 78.28775391 -44.13964844 78.31298828 C-57.27981919 78.35392339 -66.70464834 74.90242634 -76.16699219 65.86376953 C-86.67963106 54.88041549 -89.42868845 42.1192856 -89.37817383 27.33642578 C-89.15680909 17.77855315 -87.47634269 8.87526338 -82.07324219 0.86376953 C-77.65948102 1.32331367 -74.98276862 4.28845116 -71.88574219 7.17626953 C-71.33982422 7.66289063 -70.79390625 8.14951172 -70.23144531 8.65087891 C-68.10665169 10.60716349 -66.31884468 12.30416891 -65.14746094 14.97314453 C-65.06222667 17.14437531 -65.43571612 18.72532527 -66.07324219 20.80126953 C-67.98160193 28.72226957 -67.60699585 37.92447234 -63.43652344 45.08251953 C-59.27448964 50.52059234 -54.74296689 54.14385263 -48.07324219 55.86376953 C-38.58676788 56.80646311 -30.01415203 56.8038202 -22.07324219 50.86376953 C-16.86116935 46.25892848 -13.92925774 39.71189391 -13.07324219 32.86376953 C-12.80795374 28.17700688 -13.3061505 24.30639586 -14.63574219 19.85595703 C-15.21784587 17.20530634 -15.53252397 15.58778561 -15.07324219 12.86376953 C-13.25305611 10.29847355 -11.07854572 8.1716329 -8.82324219 5.98876953 C-8.23671875 5.38291016 -7.65019531 4.77705078 -7.04589844 4.15283203 C-6.47226563 3.58564453 -5.89863281 3.01845703 -5.30761719 2.43408203 C-4.52209473 1.65701904 -4.52209473 1.65701904 -3.72070312 0.86425781 C-2.07324219 -0.13623047 -2.07324219 -0.13623047 0 0 Z " fill="#E9208E" transform="translate(120.0732421875,93.13623046875)"/>
<path d="M0 0 C2.05471661 1.81656482 2.05471661 1.81656482 4.953125 3.6640625 C5.659767 7.70369927 5.53831906 11.61186969 4.953125 15.6640625 C2.51167675 18.82358377 1.15921018 19.47270401 -2.73046875 20.08984375 C-7.51106375 19.47608067 -10.24314959 17.0032013 -13.984375 14.1015625 C-35.31925296 -1.66568122 -61.1351293 -8.3494117 -87.48217773 -4.56445312 C-104.26965426 -1.77456835 -120.47973874 4.9975242 -133.421875 16.1640625 C-136.34819159 18.58666885 -138.45915411 20.24675434 -142.296875 20.6015625 C-146.65978037 19.51083616 -148.40494431 18.23050564 -151.0390625 14.66796875 C-152.046875 12.6640625 -152.046875 12.6640625 -152.234375 9.0390625 C-150.84914985 5.10210681 -149.24452489 3.16625939 -146.046875 0.6640625 C-144.96792969 -0.21185547 -144.96792969 -0.21185547 -143.8671875 -1.10546875 C-128.12221946 -13.23722983 -108.8764359 -21.95391536 -89.046875 -24.3359375 C-87.69916016 -24.50029297 -87.69916016 -24.50029297 -86.32421875 -24.66796875 C-56.03056031 -27.86350234 -23.47050164 -20.0377412 0 0 Z " fill="#E9208E" transform="translate(152.046875,25.3359375)"/>
<path d="M0 0 C3.17045209 2.49455351 3.95458047 3.80789497 4.5 7.9375 C4.0625 11.625 4.0625 11.625 1.5 14.625 C-1.72258993 16.49996142 -3.26821258 17.29755118 -6.91015625 16.46875 C-10.53319132 14.96089725 -13.66257571 12.64143383 -16.91796875 10.47265625 C-31.1089708 1.78915823 -47.24837003 -0.04029671 -63.359375 3.34375 C-72.01262661 5.74513083 -80.0114307 9.71312144 -87.0625 15.3125 C-90.05595872 17.4079211 -92.39435177 17.06012347 -95.9375 16.625 C-98.875 15.125 -98.875 15.125 -100.9375 12.625 C-101.45488658 9.36546457 -101.68208924 7.69566141 -100.9375 4.625 C-92.9486967 -6.19853995 -76.10187692 -12.65854059 -63.35058594 -15.04541016 C-40.47765046 -18.16949584 -18.74153746 -13.65454872 0 0 Z " fill="#E9208E" transform="translate(127.9375,53.375)"/>
<path d="M0 0 C1.25562744 0.00737183 1.25562744 0.00737183 2.53662109 0.01489258 C13.96113998 0.23156066 22.98677657 4.04877052 32.1875 10.75 C34.625 13.3125 34.625 13.3125 35.09375 16.1328125 C34.45841681 20.44248931 32.76017472 21.8535867 29.5625 24.75 C28.62277344 25.63558594 27.68304688 26.52117187 26.71484375 27.43359375 C23.625 29.3125 23.625 29.3125 20.015625 29.22265625 C17.20172409 28.46731188 14.9585381 27.72636054 12.4375 26.3125 C6.34730441 22.93870529 0.01460413 22.28090746 -6.78515625 23.87890625 C-10.19277106 24.96547458 -13.01207424 26.07054949 -16 28.0625 C-18.375 29.3125 -18.375 29.3125 -21.625 29.5625 C-27.14423028 27.72275657 -31.09579737 24.10861269 -34.375 19.3125 C-34.81730313 16.14066856 -35.03323133 14.27369211 -33.1953125 11.58984375 C-23.1481908 3.6493766 -12.76428528 -0.08873017 0 0 Z " fill="#E9208E" transform="translate(80.375,70.6875)"/>
<path d="M0 0 C2.93423195 1.79646854 4.47205355 2.9441071 6 6 C6.43808718 10.28819956 6.44926618 13.94422448 4.75 17.9375 C2.80470008 20.2301749 1.87852015 21.14422374 -1 22 C-6.31168294 22.42156214 -9.72405788 22.5213641 -14 19 C-16.54090721 14.80392436 -16.71686675 10.78764576 -16 6 C-11.8902581 -0.57558704 -7.32074082 -0.86329491 0 0 Z " fill="#E9208E" transform="translate(85,111)"/>
</svg>
